<svg width="22.000000" height="22.000000" viewBox="0 0 22 22" fill="none" xmlns="http://www.w3.org/2000/svg" xmlns:xlink="http://www.w3.org/1999/xlink">
	<desc>
			Created with Pixso.
	</desc>
	<defs>
		<clipPath id="clip57_1109">
			<rect id="ph:facebook-logo" width="22.000000" height="22.000000" fill="white" fill-opacity="0"/>
		</clipPath>
	</defs>
	<rect id="ph:facebook-logo" width="22.000000" height="22.000000" fill="#FFFFFF" fill-opacity="0"/>
	<g clip-path="url(#clip57_1109)">
		<path id="Vector" d="M11 2.06C9.23 2.06 7.5 2.58 6.03 3.56C4.56 4.55 3.41 5.94 2.74 7.57C2.06 9.21 1.88 11 2.23 12.74C2.57 14.47 3.43 16.06 4.68 17.31C5.93 18.56 7.52 19.42 9.25 19.76C10.99 20.11 12.78 19.93 14.42 19.25C16.05 18.58 17.44 17.43 18.43 15.96C19.41 14.49 19.93 12.76 19.93 11C19.93 8.63 18.99 6.35 17.31 4.68C15.64 3 13.36 2.06 11 2.06ZM11.68 18.53L11.68 13.06L13.75 13.06C13.93 13.06 14.1 12.99 14.23 12.86C14.36 12.73 14.43 12.55 14.43 12.37C14.43 12.19 14.36 12.01 14.23 11.88C14.1 11.75 13.93 11.68 13.75 11.68L11.68 11.68L11.68 9.62C11.68 9.26 11.83 8.91 12.09 8.65C12.34 8.39 12.69 8.25 13.06 8.25L14.43 8.25C14.61 8.25 14.79 8.17 14.92 8.04C15.05 7.91 15.12 7.74 15.12 7.56C15.12 7.38 15.05 7.2 14.92 7.07C14.79 6.94 14.61 6.87 14.43 6.87L13.06 6.87C12.33 6.87 11.63 7.16 11.11 7.68C10.6 8.19 10.31 8.89 10.31 9.62L10.31 11.68L8.25 11.68C8.06 11.68 7.89 11.75 7.76 11.88C7.63 12.01 7.56 12.19 7.56 12.37C7.56 12.55 7.63 12.73 7.76 12.86C7.89 12.99 8.06 13.06 8.25 13.06L10.31 13.06L10.31 18.53C8.37 18.35 6.57 17.43 5.3 15.96C4.02 14.5 3.35 12.59 3.44 10.65C3.53 8.71 4.36 6.87 5.77 5.53C7.18 4.18 9.05 3.43 11 3.43C12.94 3.43 14.81 4.18 16.22 5.53C17.63 6.87 18.46 8.71 18.55 10.65C18.64 12.59 17.97 14.5 16.7 15.96C15.42 17.43 13.62 18.35 11.68 18.53Z" fill="#000000" fill-opacity="1.000000" fill-rule="nonzero"/>
	</g>
</svg>
