<svg width="22.000000" height="22.000000" viewBox="0 0 22 22" fill="none" xmlns="http://www.w3.org/2000/svg" xmlns:xlink="http://www.w3.org/1999/xlink">
	<desc>
			Created with Pixso.
	</desc>
	<defs>
		<clipPath id="clip57_1111">
			<rect id="ph:instagram-logo" width="22.000000" height="22.000000" fill="white" fill-opacity="0"/>
		</clipPath>
	</defs>
	<rect id="ph:instagram-logo" width="22.000000" height="22.000000" fill="#FFFFFF" fill-opacity="0"/>
	<g clip-path="url(#clip57_1111)">
		<path id="Vector" d="M11 6.87C10.18 6.87 9.38 7.11 8.7 7.57C8.03 8.02 7.5 8.66 7.18 9.42C6.87 10.17 6.79 11 6.95 11.8C7.11 12.6 7.5 13.33 8.08 13.91C8.66 14.49 9.39 14.88 10.19 15.04C10.99 15.2 11.82 15.12 12.57 14.81C13.33 14.49 13.97 13.97 14.42 13.29C14.88 12.61 15.12 11.81 15.12 11C15.12 9.9 14.68 8.85 13.91 8.08C13.14 7.31 12.09 6.87 11 6.87ZM11 13.75C10.45 13.75 9.92 13.58 9.47 13.28C9.02 12.98 8.66 12.55 8.45 12.05C8.25 11.54 8.19 10.99 8.3 10.46C8.4 9.93 8.67 9.43 9.05 9.05C9.43 8.67 9.93 8.4 10.46 8.3C10.99 8.19 11.54 8.25 12.05 8.45C12.55 8.66 12.98 9.02 13.28 9.47C13.58 9.92 13.75 10.45 13.75 11C13.75 11.72 13.46 12.42 12.94 12.94C12.42 13.46 11.72 13.75 11 13.75ZM15.12 2.06L6.87 2.06C5.59 2.06 4.37 2.57 3.47 3.47C2.57 4.37 2.06 5.59 2.06 6.87L2.06 15.12C2.06 16.4 2.57 17.62 3.47 18.52C4.37 19.42 5.59 19.93 6.87 19.93L15.12 19.93C16.4 19.93 17.62 19.42 18.52 18.52C19.42 17.62 19.93 16.4 19.93 15.12L19.93 6.87C19.93 5.59 19.42 4.37 18.52 3.47C17.62 2.57 16.4 2.06 15.12 2.06ZM18.56 15.12C18.56 16.03 18.2 16.91 17.55 17.55C16.91 18.2 16.03 18.56 15.12 18.56L6.87 18.56C5.96 18.56 5.08 18.2 4.44 17.55C3.79 16.91 3.43 16.03 3.43 15.12L3.43 6.87C3.43 5.96 3.79 5.08 4.44 4.44C5.08 3.79 5.96 3.43 6.87 3.43L15.12 3.43C16.03 3.43 16.91 3.79 17.55 4.44C18.2 5.08 18.56 5.96 18.56 6.87L18.56 15.12ZM16.5 6.53C16.5 6.73 16.43 6.93 16.32 7.1C16.21 7.27 16.05 7.4 15.86 7.48C15.67 7.56 15.46 7.58 15.26 7.54C15.06 7.5 14.88 7.4 14.73 7.26C14.59 7.11 14.49 6.93 14.45 6.73C14.41 6.53 14.43 6.32 14.51 6.13C14.59 5.94 14.72 5.78 14.89 5.67C15.06 5.56 15.26 5.5 15.46 5.5C15.74 5.5 16 5.6 16.19 5.8C16.39 5.99 16.5 6.25 16.5 6.53Z" fill="#000000" fill-opacity="1.000000" fill-rule="nonzero"/>
	</g>
</svg>
