<svg width="22.000000" height="22.000000" viewBox="0 0 22 22" fill="none" xmlns="http://www.w3.org/2000/svg" xmlns:xlink="http://www.w3.org/1999/xlink">
	<desc>
			Created with Pixso.
	</desc>
	<defs>
		<clipPath id="clip57_1113">
			<rect id="typcn:social-linkedin-circular" width="22.000000" height="22.000000" fill="white" fill-opacity="0"/>
		</clipPath>
	</defs>
	<rect id="typcn:social-linkedin-circular" width="22.000000" height="22.000000" fill="#FFFFFF" fill-opacity="0"/>
	<g clip-path="url(#clip57_1113)">
		<path id="Vector" d="M9.19 14.02L7.73 14.02L7.73 9.25L9.19 9.25L9.19 14.02ZM8.46 8.64C7.93 8.64 7.66 8.4 7.66 7.91C7.66 7.81 7.68 7.71 7.72 7.62C7.76 7.53 7.82 7.45 7.89 7.39C8.05 7.25 8.25 7.17 8.46 7.18C8.99 7.18 9.25 7.42 9.25 7.91C9.25 8.4 8.99 8.64 8.46 8.64ZM14.63 14.02L13.13 14.02L13.13 11.36C13.13 10.67 12.89 10.32 12.4 10.32C12.01 10.32 11.76 10.52 11.64 10.9C11.6 10.96 11.58 11.09 11.58 11.27L11.58 14.02L10.08 14.02L10.08 10.78C10.08 10.05 10.07 9.54 10.05 9.25L11.33 9.25L11.42 9.89C11.76 9.39 12.25 9.13 12.92 9.13C13.43 9.13 13.84 9.31 14.16 9.67C14.47 10.02 14.63 10.54 14.63 11.21L14.63 14.02L14.63 14.02ZM11 19.25C6.45 19.25 2.75 15.54 2.75 11C2.75 6.45 6.45 2.75 11 2.75C15.54 2.75 19.25 6.45 19.25 11C19.25 15.54 15.54 19.25 11 19.25ZM11 4.58C7.46 4.58 4.58 7.46 4.58 11C4.58 14.53 7.46 17.41 11 17.41C14.53 17.41 17.41 14.53 17.41 11C17.41 7.46 14.53 4.58 11 4.58Z" fill="#000000" fill-opacity="1.000000" fill-rule="nonzero"/>
	</g>
</svg>
