<svg width="22.000000" height="22.000000" viewBox="0 0 22 22" fill="none" xmlns="http://www.w3.org/2000/svg" xmlns:xlink="http://www.w3.org/1999/xlink">
	<desc>
			Created with Pixso.
	</desc>
	<defs>
		<clipPath id="clip57_1115">
			<rect id="streamline:computer-logo-youtube-youtube-clip-social-video" width="22.000000" height="22.000000" fill="white" fill-opacity="0"/>
		</clipPath>
	</defs>
	<rect id="streamline:computer-logo-youtube-youtube-clip-social-video" width="22.000000" height="22.000000" fill="#FFFFFF" fill-opacity="0"/>
	<g clip-path="url(#clip57_1115)">
		<path id="Vector" d="M18.07 3.14C19.8 3.14 21.21 4.54 21.21 6.28L21.21 15.71C21.21 17.44 19.8 18.85 18.07 18.85L3.92 18.85C2.19 18.85 0.78 17.44 0.78 15.71L0.78 6.28C0.78 4.54 2.19 3.14 3.92 3.14L18.07 3.14Z" stroke="#000000" stroke-opacity="1.000000" stroke-width="1.000000" stroke-linejoin="round"/>
		<path id="Vector" d="M8.34 8.04C8.34 7.93 8.36 7.82 8.42 7.72C8.47 7.62 8.55 7.54 8.65 7.49C8.75 7.43 8.86 7.41 8.97 7.41C9.08 7.41 9.19 7.45 9.28 7.51L14.94 10.81C15.03 10.86 15.11 10.94 15.17 11.04C15.22 11.13 15.25 11.24 15.25 11.35C15.25 11.46 15.22 11.57 15.17 11.66C15.11 11.76 15.03 11.84 14.94 11.89L9.28 15.19C9.19 15.25 9.08 15.28 8.97 15.28C8.86 15.27 8.75 15.25 8.65 15.19C8.56 15.13 8.48 15.05 8.42 14.96C8.37 14.86 8.34 14.75 8.34 14.64L8.34 8.04Z" stroke="#000000" stroke-opacity="1.000000" stroke-width="1.000000" stroke-linejoin="round"/>
	</g>
</svg>
